HIERARCHY
ROOT Hips
{
   OFFSET 0.00000 0.00000 0.00000
   CHANNELS 6 Xposition Yposition Zposition Zrotation Xrotation Yrotation
   JOINT RightUpLeg
   {
      OFFSET -8.945800 -8.667070 0.101652
      CHANNELS 3 Zrotation Xrotation Yrotation
      JOINT RightLeg
      {
         OFFSET 0.000000 -44.422697 1.372700
         CHANNELS 3 Zrotation Xrotation Yrotation
         JOINT RightFoot
         {
            OFFSET 0.253549 -42.092399 -1.460590
            CHANNELS 3 Zrotation Xrotation Yrotation
            JOINT RightToes
            {
               OFFSET 0.040000 -4.415090 8.499099
               CHANNELS 3 Zrotation Xrotation Yrotation
               End Site
               {
                  OFFSET -0.080000 -0.137448 9.779790
               }
            }
         }
      }
   }
   JOINT Spine
   {
      OFFSET 0.000000 11.890501 0.000000
      CHANNELS 3 Zrotation Xrotation Yrotation
      JOINT Spine1
      {
         OFFSET 0.000000 25.657401 0.127663
         CHANNELS 3 Zrotation Xrotation Yrotation
         JOINT HEad
         {
            OFFSET 0.000000 8.734161 0.011341
            CHANNELS 3 Zrotation Xrotation Yrotation
            End Site
            {
               OFFSET -0.290000 12.774200 2.513950
            }
         }
         JOINT LeftShoulder1
         {
            OFFSET 8.990000 -0.362252 -0.220000
            CHANNELS 3 Zrotation Xrotation Yrotation
            JOINT LeftArm
            {
               OFFSET 10.282700 -0.003380 0.322123
               CHANNELS 3 Zrotation Xrotation Yrotation
               JOINT LeftForeArm
               {
                  OFFSET 32.766900 0.099144 -1.424340
                  CHANNELS 3 Zrotation Xrotation Yrotation
                  JOINT LeftHand
                  {
                     OFFSET 27.564301 0.085362 1.022160
                     CHANNELS 3 Zrotation Xrotation Yrotation
                     End Site
                     {
                        OFFSET 16.744301 -0.600000 1.502910
                     }
                  }
               }
            }
         }
         JOINT RightShoulder
         {
            OFFSET -8.990000 -0.362252 -0.220000
            CHANNELS 3 Zrotation Xrotation Yrotation
            JOINT RightArm
            {
               OFFSET -10.282700 -0.003380 0.322123
               CHANNELS 3 Zrotation Xrotation Yrotation
               JOINT RightForeArm
               {
                  OFFSET -32.897098 0.099144 -1.424340
                  CHANNELS 3 Zrotation Xrotation Yrotation
                  JOINT RightHand
                  {
                     OFFSET -27.492101 0.085362 1.022160
                     CHANNELS 3 Zrotation Xrotation Yrotation
                     End Site
                     {
                        OFFSET -16.631201 -0.600000 1.502910
                     }
                  }
               }
            }
         }
      }
   }
   JOINT LeftUpLeg
   {
      OFFSET 8.945800 -8.667070 0.101652
      CHANNELS 3 Zrotation Xrotation Yrotation
      JOINT LeftLeg
      {
         OFFSET 0.000000 -44.422697 1.372700
         CHANNELS 3 Zrotation Xrotation Yrotation
         JOINT LeftFoot
         {
            OFFSET -0.253549 -42.092399 -1.460590
            CHANNELS 3 Zrotation Xrotation Yrotation
            JOINT LeftToes
            {
               OFFSET -0.040000 -4.415090 8.499099
               CHANNELS 3 Zrotation Xrotation Yrotation
               End Site
               {
                  OFFSET 0.080000 -0.047448 9.779790
               }
            }
         }
      }
   }
}
MOTION
Frames: 19
Frame Time: 0.016667
4.38462 102.785 -43.2874 16.0283 15.2482 162.569 12.2122 25.7308 -10.1763 21.2467 31.487 -28.1912 -30.6567 2.74403 -1.61041 0.0462048 0.000533403 0.662642 3.20573 11.2624 -4.18917 -2.69937e-007 -2.24648e-009 -0.0171924 9.31947 -1.10455 -25.974 -7.95139e-016 1.59028e-015 9.54166e-015 -140.564 -41.3421 -105.192 -123.524 30.5897 4.14748 27.2557 22.0406 -26.2236 15.0535 8.64654 -0.893453 130.633 -33.8074 103.817 51.7392 50.0762 34.5494 14.9413 28.9858 4.39509 16.3875 -9.16004 -24.3539 -37.6891 12.3356 75.857 20.5687 -2.96985 1.4612 -1.80354e-010 1.55988e-007 -4.8394e-009 
4.69752 103.893 -43.1368 18.9853 18.7734 167.353 14.5623 22.6292 -16.6239 23.7422 37.1336 -20.7799 -28.0235 2.63877 -1.94997 0.0462048 0.000533403 0.662642 5.54622 14.7849 -7.83811 1.3985e-006 0.00556028 -0.0171924 11.4994 4.33686 -25.806 -0 0 3.18055e-015 -138.372 -41.0917 -100.588 -124.101 31.7209 4.29104 27.4106 22.4061 -25.949 18.2301 8.20669 -3.27321 128.109 -36.6021 102.854 51.1085 49.9419 35.9901 17.365 28.8634 -23.9016 17.5105 -6.62457 -30.5295 -37.1499 11.6425 75.336 23.3222 -2.84685 1.65282 -1.80352e-010 1.55988e-007 -4.8394e-009 
4.85852 104.992 -43.0981 21.5247 21.5888 170.862 14.837 18.5137 -22.3217 25.0142 41.1104 -14.0203 -28.5855 3.44088 -2.01289 0.0462048 0.000533403 0.662642 7.73813 17.4864 -10.717 2.67014e-006 0.00981031 -0.0171711 14.0733 10.9664 -25.4462 5.56597e-015 -1.59028e-015 3.18055e-015 -135.766 -41.1348 -95.8998 -124.026 31.9674 4.56623 27.8483 22.8771 -26.0593 21.7428 8.02823 -6.14655 125.398 -39.2084 101.061 47.7288 48.9839 36.0712 18.2389 29.0266 -1.39146 18.9029 -4.81 -35.6666 -36.7792 11.1314 75.3789 25.6687 -3.05831 2.05965 -1.80354e-010 1.55988e-007 -4.8394e-009 
4.83339 106.129 -43.2951 24.179 23.0322 172.527 12.2988 13.7756 -27.0749 25.773 44.1653 -8.20538 -27.4557 4.12229 -1.69766 0.0462048 0.000533403 0.662642 9.7154 19.5603 -12.9058 4.26947e-006 0.0152003 -0.0171108 16.9469 17.1439 -25.5738 2.38542e-015 -7.95139e-016 -0 -132.767 -41.6122 -90.8794 -119.089 28.3357 3.33032 25.2741 26.7532 -28.3831 25.5501 8.00659 -9.07334 122.611 -41.8955 98.7315 46.0286 48.4098 36.6661 17.0296 29.1781 -10.6481 20.5951 -3.915 -39.9361 -36.3283 10.7868 76.3723 27.2202 -3.35684 2.92597 -1.80355e-010 1.55988e-007 -4.8394e-009 
4.60309 107.102 -43.6441 27.189 23.5099 172.61 8.88634 8.93179 -31.9909 25.3532 45.7839 -2.70341 -27.1682 5.83693 -0.793631 0.0462048 0.000533403 0.662642 11.4753 21.1716 -14.4961 0.00417186 0.0205103 -0.0170167 20.1297 22.8169 -26.1321 -5.96354e-016 0 -3.18055e-015 -129.14 -42.3267 -85.3719 -116.276 25.9612 3.39391 24.5465 29.3718 -29.8835 29.573 8.08922 -12.098 119.718 -44.6006 95.8371 45.3045 48.152 37.7619 17.3809 29.3285 1.02018 22.586 -3.61771 -43.6025 -36.1796 10.6574 78.3677 28.0622 -3.82064 4.23326 -1.80353e-010 1.55988e-007 -4.83939e-009 
4.18136 107.826 -44.0652 30.6238 23.4061 171.45 5.52109 4.19464 -37.3251 23.7389 45.9184 2.59305 -26.3792 8.48088 0.326212 0.0462048 0.000533403 0.662642 13.0648 22.4493 -15.583 0.0095498 0.0262504 -0.0168942 23.586 27.9358 -27.0899 4.67144e-015 -3.97569e-016 -0 -124.767 -43.0548 -79.3393 -114.386 24.39 3.94275 34.425 21.6079 -19.7329 33.7282 8.21165 -15.0496 116.764 -47.3979 92.5313 44.7879 47.998 39.0327 16.7398 29.446 -5.5355 25.1584 -3.52071 -46.8681 -36.3623 9.7099 82.9807 28.882 -4.07859 5.82297 -1.80355e-010 1.55988e-007 -4.83939e-009 
3.6182 108.209 -44.4976 34.4288 23.0616 169.429 3.03744 -0.339166 -42.9274 21.1575 44.6754 7.54375 -25.7551 11.7589 1.46495 0.0462048 0.000533403 0.662642 15.0258 24.5812 -16.375 0.0217457 0.124761 -0.0167486 26.8329 31.2979 -27.8361 -1.26725e-015 3.47873e-016 -3.18055e-015 -120.734 -42.8841 -74.2336 -112.682 23.3183 4.52283 29.9651 28.3003 -24.4593 37.5724 7.31827 -17.4316 113.739 -49.9684 88.7128 41.4665 47.4459 38.5276 16.3369 30.0353 5.98905 28.4153 -3.33854 -49.8355 -36.9441 8.20991 89.4907 29.4199 -4.04593 7.5046 -1.80353e-010 1.55988e-007 -4.8394e-009 
2.97837 108.273 -44.8757 38.4576 22.7576 166.926 1.63003 -4.64297 -48.1102 18.1888 42.2534 11.5287 -24.8675 15.1367 2.20205 0.0462048 0.000533403 0.662642 17.5318 27.3477 -17.0839 0.0311866 0.122311 -0.0165853 29.5439 33.3846 -28.2567 -2.98177e-016 -7.95139e-016 3.18055e-015 -112.137 -41.511 -64.5796 -105.41 23.2652 1.71011 30.8428 28.2959 -26.5448 40.897 5.86595 -19.1177 110.677 -52.3734 84.507 39.5478 47.159 39.2564 15.9245 29.7378 -13.248 31.9137 -2.74933 -52.4652 -37.6146 7.101 95.3504 29.2693 -4.01671 9.11505 -1.80355e-010 1.55988e-007 -4.83939e-009 
2.3251 108.043 -45.1445 42.4912 22.7222 164.295 0.904407 -8.77341 -52.1012 15.7077 39.4329 13.6598 -23.9174 17.8409 2.21669 0.0462048 0.000533403 0.662642 20.5755 30.5697 -17.8719 0.0352533 0.114941 -0.0164095 31.5151 34.3876 -28.2011 -2.78299e-015 -3.97569e-016 -0 -106.438 -39.3494 -58.7718 -100.21 22.3326 -0.885596 27.4804 33.7035 -31.4194 43.5181 4.0045 -19.9913 107.604 -54.6445 79.9021 38.3226 46.8867 40.7262 15.5532 30.1677 6.77379 35.3218 -1.67532 -54.6515 -38.217 6.39921 100.39 28.7137 -4.07299 10.444 -1.80353e-010 1.55988e-007 -4.8394e-009 
1.74676 107.527 -45.2958 46.28 23.1589 161.85 -0.215943 -12.8771 -54.3867 14.7086 37.6993 12.9761 -23.033 18.9786 1.16669 0.0462048 0.000533403 0.662642 24.099 34.1158 -18.8935 0.0372928 0.109471 -0.0162267 32.6665 34.5291 -27.6108 1.19271e-015 0 -3.18055e-015 -102.893 -36.9817 -55.6976 -95.9339 20.937 -3.16991 29.3379 34.2218 -31.4733 45.4024 1.92205 -19.9075 104.578 -56.8546 75.0515 37.208 46.3047 42.2622 15.3831 29.8607 -5.50707 38.3378 -0.125628 -56.3092 -38.5789 6.12653 104.437 27.9868 -4.18041 11.3362 -1.8035e-010 1.55988e-007 -4.8394e-009 
1.25604 106.816 -45.2487 49.5488 24.2536 159.874 -0.512588 -17.2403 -54.5962 15.2239 36.5642 9.94491 -31.7561 12.9783 0.369194 0.0462048 0.000533403 0.662642 27.0413 36.8511 -19.622 0.00571583 0.00677039 -0.016042 33.9706 35.0422 -27.4534 2.78299e-015 0 -3.18055e-015 -99.6008 -34.8303 -52.9238 -92.2269 19.3716 -5.14519 28.1888 37.8454 -34.0276 46.8574 0.574518 -19.9919 101.625 -58.8382 69.9369 36.1985 45.4373 43.8807 15.053 30.099 6.28526 40.5678 1.54902 -56.2735 -38.4888 7.07686 106.582 27.4392 -4.16278 11.6722 -1.80353e-010 1.55988e-007 -4.8394e-009 
0.944271 106.104 -44.938 52.0236 26.2106 158.634 -4.9303 -21.6261 -53.5386 18.311 37.3555 2.22044 -28.5982 9.86127 -4.20565 0.0462048 0.000533403 0.662642 29.2431 38.8964 -20.0043 0.00499706 0.0046004 -0.0158609 35.2768 35.6971 -27.5324 -0 0 3.18055e-015 -96.7147 -32.8234 -50.5431 -88.7158 17.6791 -6.97945 30.0629 38.6198 -34.192 47.7996 -0.311903 -20.0311 98.7525 -60.5628 64.7096 35.0574 44.1475 45.2414 14.863 29.8338 -0.990132 41.9808 3.42539 -54.7468 -37.8041 8.78683 106.624 27.3404 -4.00574 11.5136 -1.80357e-010 1.55988e-007 -4.8394e-009 
0.791297 105.482 -44.3752 53.4398 29.2687 158.405 -11.6501 -25.9789 -51.6682 24.9195 40.1278 -8.89188 -29.3709 1.38221 -8.31332 0.0462048 0.000533403 0.662642 30.6312 40.3691 -20.0151 0.00477904 0.0037654 -0.0156887 35.416 35.48 -27.5184 -6.95746e-015 7.95139e-016 -3.18055e-015 -94.088 -30.9897 -48.3193 -85.4342 15.9541 -8.70472 29.9031 41.1313 -35.8642 48.3674 -0.729928 -20.185 96.0391 -61.8601 59.6148 33.8695 42.6071 46.4959 14.6724 30.2837 6.22945 42.403 5.83625 -52.9469 -36.5032 10.282 105.373 27.7329 -4.01019 10.9185 -1.80347e-010 1.55988e-007 -4.8394e-009 
0.811742 104.977 -43.5437 53.8901 33.2817 159.201 -20.607 -29.0652 -49.843 33.9974 40.5754 -21.6809 -24.442 -5.66436 -11.8526 0.0462048 0.000533403 0.662642 31.2177 41.3626 -19.6644 0.00448646 0.00341792 -0.0155307 34.5892 34.5326 -27.4734 5.76476e-015 -3.97569e-016 -0 -91.6669 -29.3337 -46.1714 -82.3199 14.1878 -10.3791 31.3682 41.888 -35.9298 48.772 -0.717196 -20.4215 93.6042 -62.7511 54.999 32.5135 40.8562 47.5089 14.5202 29.9425 1.88007 42.0483 8.42548 -50.8843 -34.876 11.7597 103.09 28.4827 -4.23704 9.92389 -1.80357e-010 1.55988e-007 -4.83939e-009 
1.11267 104.696 -42.7289 53.758 37.7985 160.779 -27.9621 -30.6115 -47.2073 40.0353 35.9826 -30.8106 -18.0718 -12.2146 -12.3158 0.0462048 0.000533403 0.662642 31.0573 41.9023 -19.0265 0.00430383 0.00390667 -0.0153923 33.0523 33.041 -27.4137 3.83903e-015 1.2424e-015 -3.18055e-015 -89.4927 -27.8172 -44.1543 -79.4536 12.3712 -12.0335 31.695 43.5878 -37.4563 49.1897 -0.625563 -20.8691 90.1616 -60.6481 52.4463 29.464 37.1831 46.7102 14.2622 30.4562 6.82719 41.6044 10.7012 -48.7065 -33.7467 13.5861 100.34 29.0832 -4.99863 8.72128 -1.80347e-010 1.55988e-007 -4.8394e-009 
1.79913 104.589 -42.073 53.1768 42.6006 163.068 -33.8092 -30.9929 -44.0349 41.8625 29.5076 -36.3662 -7.9144 -17.5889 -9.61031 0.0462048 0.000533403 0.662642 30.2116 41.9916 -18.1902 0.00441567 0.00558042 -0.0152787 31.0311 31.1853 -27.3844 2.48481e-015 -7.95139e-016 -1.59028e-015 -91.4974 -24.3732 -44.8921 -74.1315 9.48879 -17.114 26.6088 45.2157 -30.7913 42.3449 -3.34234 -13.7222 83.4792 -65.2893 40.4101 26.0696 33.4142 44.7683 13.9622 29.948 4.82567 42.2709 12.7029 -45.972 -33.7682 15.7777 96.4321 29.2261 -6.67843 7.55631 -1.80357e-010 1.55988e-007 -4.8394e-009 
2.90021 104.35 -41.7517 52.2467 47.4359 165.937 -38.0513 -30.9731 -40.2458 40.3996 23.7522 -39.4524 4.81644 -21.837 -4.23693 0.0462048 0.000533403 0.662642 28.8552 41.7047 -17.2303 0.00500683 0.0101004 -0.0151952 28.6245 28.963 -27.4444 4.96962e-016 0 -1.59028e-015 -91.6415 -22.2126 -43.9416 -70.6636 7.53308 -20.1252 23.1124 46.8346 -27.0382 44.0801 -2.39455 -15.664 84.1432 -60.5326 45.0564 22.331 30.1624 41.7192 14.4627 30.3084 7.10448 44.4536 14.2723 -43.1662 -35.1727 18.0911 91.8604 28.983 -9.31127 6.51012 -1.80353e-010 1.55988e-007 -4.8394e-009 
4.48752 104.18 -42.2722 50.9493 52.0077 169.237 -41.8499 -31.1398 -36.1876 38.2467 21.3127 -41.5606 19.6725 -25.407 2.33169 0.0462048 0.000533403 0.662642 27.0454 41.1223 -16.1499 0.00626168 0.0173004 -0.0151473 25.8683 26.3564 -27.665 -5.26779e-015 0 1.98785e-016 -90.551 -20.9246 -41.97 -68.3874 6.16208 -21.9854 21.9866 47.286 -24.8608 45.8754 -1.04349 -17.4181 83.8697 -58.2171 46.6614 19.7674 28.0696 40.6794 14.6658 29.759 5.57864 47.5597 15.4556 -41.2094 -37.121 20.2767 87.6335 28.2955 -12.2093 5.43846 -1.80353e-010 1.55988e-007 -4.8394e-009 
5.99633 103.613 -42.9524 49.2894 55.9979 172.714 -42.901 -32.6277 -30.7026 32.1676 22.3012 -42.5638 34.9528 -28.2363 7.75241 0.0462048 0.000533403 0.662642 24.8459 40.2978 -14.9321 0.0083645 0.0265404 -0.0151403 23.7244 24.5008 -28.0986 -2.78299e-015 -3.18055e-015 -3.97569e-016 -88.5277 -20.219 -39.3258 -66.9462 5.23656 -23.2036 20.8986 48.2578 -23.2194 47.9979 0.787281 -19.174 83.8047 -57.3325 47.4837 18.0685 26.6818 40.7473 15.4968 30.0079 6.225 50.7469 15.9939 -39.7631 -39.285 22.2342 84.0553 27.629 -14.9194 4.44941 -1.80353e-010 1.55988e-007 -4.8394e-009 
